<?xml version="1.0" encoding="UTF-8"?>
<svg id="Capa_1" xmlns="http://www.w3.org/2000/svg" version="1.1" viewBox="0 0 95.9 37.5">
  <!-- Generator: Adobe Illustrator 29.2.1, SVG Export Plug-In . SVG Version: 2.1.0 Build 116)  -->
  <defs>
    <style>
      .st0 {
        fill-rule: evenodd;
      }

      .st0, .st1 {
        fill: #ec008c;
      }

      .st2 {
        fill: #8aa172;
      }
    </style>
  </defs>
  <path class="st0" d="M0,17.1L16.6.5c.7-.7,1.8-.7,2.4,0l16.6,16.6h-5.2c-.4,0-.8.1-1.1.4l-7.5,7.5-7.8-7.5c-.6-.6-1.7-.6-2.3,0s-.6,1.7,0,2.3l8.9,8.6c.6.6,1.7.6,2.3,0l8.1-8.1h4.6l-16.6,16.6c-.7.7-1.8.7-2.4,0L0,20.4h5.2c.4,0,.8-.2,1.1-.5l7.5-7.5,7.8,7.5c.6.6,1.7.6,2.3,0,.6-.6.6-1.7,0-2.3l-8.9-8.6c-.6-.6-1.7-.6-2.3,0l-8.1,8.1H0Z"/>
  <path class="st1" d="M67.5,23.3h0c0,.6-.2.9-.5,1.1-.3.3-.7.4-1.1.4s-.8-.1-1.1-.4c0,0-.5-.6-.5-1v-5.8c0-.3,0-.5-.1-.7-.2-.6-.5-1-.9-1.3-.4-.3-.9-.4-1.5-.4s-.9,0-1.3.3c-.4.2-.7.5-1,.9-.3.4-.4.8-.4,1.3v5.6h0c0,.5-.2.8-.5,1.1-.3.3-.7.5-1.1.5s-.8-.2-1.1-.5-.5-.7-.5-1.1h0v-9.7c0-.4.2-.8.5-1.1.3-.3.7-.5,1.1-.5s.5,0,.8.2c.2.1.4.3.6.6.9-.5,1.8-.7,2.8-.7s1.9.2,2.8.7c.9.5,1.6,1.2,2.1,2,.5.9.8,1.8.8,2.9h0v5.5h0ZM46.7,21.8c.6,0,1.2-.2,1.7-.5.5-.3.9-.7,1.2-1.2.3-.5.4-1.1.4-1.6s-.2-1.3-.6-1.9c-.3-.4-.7-.8-1.2-1.1-.5-.3-1-.4-1.5-.4s-1.1.2-1.6.5c-.5.3-.9.7-1.2,1.2-.3.5-.4,1.1-.4,1.7s.1,1.2.4,1.7c.3.5.7.9,1.2,1.2.5.3,1,.5,1.6.5ZM53.7,23.2c0,.4-.2.8-.5,1.1-.3.3-.7.5-1.1.5s-.7-.1-1-.3c-.3-.2-.5-.5-.6-.9-.6.5-1.2.8-1.9,1-.7.2-1.3.3-2,.3h0c-.9,0-1.7-.2-2.4-.5-.8-.3-1.5-.8-2.1-1.4-.6-.6-1.1-1.3-1.4-2.1-.3-.8-.5-1.7-.5-2.5s.3-2.2.8-3.2c.6-1,1.3-1.8,2.3-2.4,1-.6,2.1-.9,3.2-.9h0c.7,0,1.4.1,2.1.3.7.2,1.3.6,1.8,1,0-.4.3-.6.6-.9.3-.2.6-.3,1-.3s.8.2,1.1.5c.3.3.5.7.5,1.1v9.6Z"/>
  <path class="st0" d="M82.4,12.2h0c-.7-.4-1.7-.2-2.1.6l-4.5,7.6h-3.6l2.2,3.7c.3.5.9.8,1.4.8.6,0,1.1-.3,1.4-.8l5.7-9.7c.4-.7.2-1.7-.6-2.1M69.3,12.2h0c.7-.4,1.7-.2,2.1.6l2.5,4.3h-3.6l-1.6-2.7c-.4-.7-.2-1.7.6-2.1Z"/>
  <path class="st2" d="M94.8,19.1h-1.2c-.2,0-.3,0-.4-.2-.1-.1-.2-.3-.2-.4s0-.3.2-.4c.1-.1.3-.2.4-.2h1.7c.2,0,.3,0,.4.2.1.1.2.3.2.4s0,.3-.2.4c-.1.1-.3.2-.4.2h-.5Z"/>
  <path class="st2" d="M95.7,24.3c0,.2,0,.3-.2.4s-.3.2-.4.2-.2,0-.3,0c0,0-.2-.1-.2-.2-.4.2-.7.3-1.1.3s-.8,0-1.1-.3c-.3-.2-.6-.5-.8-.8-.2-.3-.3-.7-.3-1.1h0v-2.2h0c0-.3,0-.4.2-.5.1-.1.3-.2.4-.2s.3,0,.4.2c.1.1.2.2.2.4v2.3c0,0,0,.2,0,.3,0,.2.2.4.4.5s.4.2.6.2.3,0,.5-.1c.2,0,.3-.2.4-.3,0-.1.1-.3.1-.5v-2.2c0-.2,0-.3.2-.4.1-.1.3-.2.4-.2s.3,0,.4.2c.1.1.2.3.2.4v3.8ZM88.3,20.1c.1,0,.2.1.3.2,0,.1.1.2.1.4s0,.3-.2.4c-.1.1-.3.2-.4.2s-.1,0-.2,0c-.3-.1-.5-.2-.8-.2s-.2,0-.3,0c-.1,0-.3.1-.3.3,0,.1-.1.3-.2.4,0,.1,0,.2,0,.3v2.1h0c0,.2,0,.3-.2.4-.1.1-.3.2-.4.2s-.3,0-.4-.2c-.1-.1-.2-.3-.2-.4h0v-3.8c0-.2,0-.3.2-.4.1-.1.3-.2.4-.2s.2,0,.3,0c0,0,.2.1.2.2.3-.2.6-.2,1-.2s.7,0,1.1.2h0s0,0,0,0ZM92.6,14.6c0-.2,0-.3.2-.4.1-.1.3-.2.4-.2h1.4c0-.2-.2-.4-.4-.5-.2-.1-.4-.2-.7-.2s-.4,0-.6.2c-.2.1-.3.3-.5.5-.1.2-.2.4-.2.7s0,.4.1.6c0,.2.2.3.3.4.1,0,.2.1.3.2.2,0,.4.1.6.1s.3,0,.5,0c.2,0,.3-.1.4-.3.1-.1.3-.2.4-.2s.3,0,.4.2c.1.1.2.3.2.4s0,.2,0,.3c0,0,0,.1-.2.2h0s0,0,0,0h0c-.2.2-.5.4-.8.5-.3.1-.6.2-.9.2s-.6,0-.9-.1c-.3,0-.5-.2-.8-.4-.1-.1-.3-.3-.4-.4-.1-.2-.3-.4-.4-.6-.1-.3-.2-.6-.2-1s.1-.9.3-1.3.5-.7.9-.9c.4-.2.8-.3,1.2-.3h0c.5,0,.9.1,1.3.3.4.2.7.5.9.9.2.4.3.8.3,1.3s0,.3-.2.4c-.1.1-.3.2-.4.2h-2.1c-.2,0-.3,0-.4-.2-.1-.1-.2-.3-.2-.4ZM87.5,15.9c.2,0,.4,0,.6-.2.2-.1.3-.3.5-.5.1-.2.2-.4.2-.6s0-.4-.2-.6c-.1-.2-.3-.3-.5-.5-.2-.1-.4-.2-.6-.2s-.4,0-.6.2c-.2.1-.4.3-.5.5-.1.2-.2.4-.2.6s0,.4.2.6c.1.2.3.4.5.5.2.1.4.2.6.2ZM87.5,12.1c.5,0,.9.1,1.3.3.4.2.7.5.9.9.2.4.3.8.3,1.3s-.1.9-.3,1.3c-.2.4-.5.7-.9.9-.4.2-.8.3-1.3.3s-.9-.1-1.3-.3v1.6c0,.2,0,.3-.2.4-.1.1-.3.2-.4.2s-.3,0-.4-.2c-.1-.1-.2-.3-.2-.4v-5.6c0-.2,0-.3.2-.4.1-.1.3-.2.4-.2s.2,0,.3,0c0,0,.2.2.2.3.4-.3.9-.4,1.3-.4Z"/>
</svg>